<?xml version="1.0" encoding="utf-8"?>
<!-- Generator: Adobe Illustrator 23.0.0, SVG Export Plug-In . SVG Version: 6.00 Build 0)  -->
<svg version="1.1" id="Camada_1" xmlns="http://www.w3.org/2000/svg" xmlns:xlink="http://www.w3.org/1999/xlink" x="0px" y="0px"
	 viewBox="0 0 20 20" style="enable-background:new 0 0 20 20;" xml:space="preserve">
<style type="text/css">
	.st0{fill:#FFCC03;}
</style>
<path class="st0" d="M19.98,9.23c0.03-0.19,0.01-0.45-0.18-0.73c0.12-0.19,0.2-0.43,0.1-0.67c-0.07-0.17-0.2-0.29-0.39-0.35
	c0.02-0.27-0.03-0.58-0.27-0.81c-0.54-0.52-1.52-0.11-1.86,0.04c-1.67,0.8-3.72,1.63-4.12,1.58c-0.04-0.01-0.09-0.01-0.13-0.01
	c-0.03,0-3.17,0.18-6.11-3.07c-0.2-0.41-1.4-2.82-2.94-4.13c0.03-0.1,0.04-0.19,0.05-0.22c0.01-0.07-0.01-0.13-0.03-0.19
	C4.01,0.46,3.86,0.33,3.67,0.29C3.63,0.28,3.58,0.28,3.54,0.28C3.38,0.05,3.09,0,2.87,0.1C2.86,0.09,2.84,0.08,2.82,0.07
	c0,0-0.05-0.02-0.05-0.02C2.59-0.03,2.4-0.01,2.25,0.09C2.23,0.1,2.22,0.11,2.2,0.12C2.17,0.12,2.14,0.11,2.11,0.11
	C1.95,0.09,1.79,0.14,1.68,0.26C1.67,0.27,1.65,0.29,1.64,0.3c0,0,0,0,0,0C1.6,0.3,1.56,0.3,1.52,0.3C1.37,0.33,1.24,0.41,1.16,0.54
	C1.14,0.57,1.13,0.59,1.11,0.62c-0.01,0-0.02,0.01-0.03,0.01c-0.09,0.04-0.16,0.12-0.2,0.21c0,0.01-0.01,0.02-0.01,0.03
	C0.83,0.88,0.79,0.9,0.76,0.92C0.47,1.08,0.49,1.39,0.55,1.63C0.33,1.91,0.04,2.35,0.01,2.77C0,2.93,0.07,3.08,0.2,3.16
	c0.13,0.08,0.3,0.09,0.43,0.01C0.66,3.16,0.68,3.15,0.7,3.14c0.04,0.51,0.43,0.93,0.93,1.03c0.19,0.49,0.53,1.69,0.66,4.18
	c-0.02,0.26-0.11,2,0.68,3.7c0.06,0.12,1.02,1.96,2.29,3.68c-0.16-0.04-0.3,0-0.39,0.04c-0.15,0.06-0.46,0.17-1.2,0
	c-0.01-0.01-0.01-0.02-0.01-0.03c-0.04-0.08-0.11-0.22-0.25-0.32c-0.01-0.03-0.02-0.06-0.03-0.09c-0.09-0.29-0.23-0.73-0.53-1.05
	c-0.02-0.03-0.04-0.05-0.06-0.08c-0.06-0.07-0.11-0.12-0.12-0.13c-0.02-0.02-0.07-0.08-0.14-0.12c-0.03-0.03-0.07-0.06-0.12-0.08
	c-0.13-0.07-0.27-0.07-0.41-0.07H1.98c-0.06-0.02-0.13-0.03-0.21-0.03C1.48,13.8,1.29,14,1.22,14.08c-0.02,0.02-0.05,0.04-0.07,0.06
	c-0.07,0.06-0.16,0.12-0.21,0.23c-0.05,0.06-0.09,0.13-0.11,0.2c-0.05,0.07-0.08,0.16-0.1,0.27c0,0.03,0,0.05,0,0.08
	c-0.15,0.11-0.26,0.26-0.28,0.47c-0.02,0.13,0.03,0.27,0.13,0.36c0.1,0.09,0.24,0.13,0.37,0.1c0.03-0.01,0.06-0.01,0.09-0.01
	c0,0.05,0.01,0.11,0.02,0.17c0.02,0.14,0.05,0.28,0,0.4c-0.12,0.33-0.17,0.84,0.27,1.39C1.5,18,1.7,18.16,1.84,18.28
	c0.06,0.05,0.11,0.09,0.13,0.1c0.06,0.1,0.17,0.21,0.32,0.3c-0.02,0.01-0.05,0.02-0.07,0.04c-0.05,0-0.15-0.02-0.19-0.03
	c-0.08-0.01-0.14-0.02-0.17-0.02c-0.27,0-0.58,0.18-0.64,0.53c-0.03,0.16,0.04,0.32,0.18,0.42c0.1,0.07,0.22,0.09,0.33,0.06
	c0.06,0.02,0.14,0.03,0.21,0.03c0.08,0.12,0.21,0.19,0.35,0.19c0.02,0,0.05,0,0.07-0.01c0.05-0.01,0.1-0.03,0.15-0.06
	c0.06-0.01,0.13-0.03,0.2-0.07c0.05-0.02,0.15-0.06,0.23-0.15c0.01-0.01,0.03-0.01,0.04-0.02c0,0,0,0,0.01,0
	c0.18,0.13,0.43,0.1,0.57-0.07c0.05-0.06,0.16-0.22,0.13-0.42c-0.01-0.08-0.05-0.16-0.11-0.23c0.05-0.03,0.09-0.06,0.13-0.1
	c0.23-0.06,0.68-0.22,0.93-0.45c0.16-0.15,0.22-0.29,0.24-0.42c0.17-0.13,0.26-0.25,0.36-0.47c0.02-0.03,0.05-0.05,0.07-0.08
	c0.17-0.17,0.49-0.49,0.37-1.11c0,0,0,0,0,0c0,0,0-0.01,0-0.01c0.62,0.78,1.29,1.49,1.97,1.96c-0.07,0.31-0.25,0.72-0.51,1.16
	c-0.08,0.13-0.08,0.29,0,0.42C7.19,19.92,7.33,20,7.48,20h0.77c0.18,0,0.35-0.12,0.4-0.3c0.18-0.58,0.59-1.31,0.74-1.56
	c0.12-0.08,0.22-0.17,0.31-0.28c0.23-0.01,0.73,0.02,1.4,0.32c0.06,0.34,0.06,0.82-0.02,1.33c-0.02,0.12,0.02,0.24,0.1,0.34
	c0.08,0.09,0.2,0.15,0.32,0.15h0.79c0.13,0,0.26-0.06,0.34-0.17c0.08-0.11,0.1-0.24,0.07-0.37c-0.09-0.32-0.11-0.93-0.04-1.69
	c0.12-0.18,0.23-0.4,0.33-0.66c0.52-0.23,1.93-0.98,2.9-2.83c0.45-0.33,0.96-0.69,1.16-0.82c0.01,0,0.02,0,0.03-0.01
	c0.39-0.11,1.68-0.54,1.94-1.2c0.02-0.06,0.04-0.12,0.05-0.18c0.52-0.26,0.76-0.55,0.73-0.88c-0.02-0.21-0.14-0.35-0.28-0.44
	c0.11-0.24,0.17-0.53,0.03-0.77C19.74,9.79,19.93,9.54,19.98,9.23z M2.67,19.66c0-0.01,0.01-0.01,0.01-0.02c0,0,0,0,0,0
	C2.67,19.64,2.67,19.65,2.67,19.66z M4.69,16.77c-0.08,0.08-0.18,0.18-0.24,0.31c-0.06,0.13-0.06,0.13-0.17,0.2
	c-0.13,0.08-0.27,0.22-0.27,0.46c-0.11,0.08-0.41,0.19-0.64,0.25C3.36,18,3.34,18,3.32,18.01l-0.04,0.01
	c-0.04,0.01-0.08,0.04-0.12,0.06c-0.04-0.02-0.08-0.03-0.13-0.03c-0.19-0.01-0.32-0.1-0.36-0.13c-0.07-0.11-0.18-0.2-0.31-0.3
	c-0.13-0.1-0.27-0.22-0.39-0.36C1.77,17,1.8,16.82,1.85,16.69c0.12-0.33,0.07-0.64,0.04-0.83c-0.01-0.04-0.01-0.07-0.02-0.08
	c0.02-0.25-0.11-0.43-0.24-0.55c0.02-0.1,0.01-0.21-0.04-0.3c0.01-0.03,0.02-0.05,0.02-0.08c0.01-0.01,0.02-0.02,0.02-0.03l0.01,0
	c0.06-0.04,0.13-0.1,0.18-0.16c0,0,0.01-0.01,0.01-0.01c0.02,0,0.04,0,0.07,0l0.09,0c0.01,0,0.03,0,0.04,0
	c0.01,0.01,0.02,0.01,0.03,0.02c0.01,0.01,0.02,0.02,0.03,0.03c0.01,0.01,0.02,0.03,0.04,0.05c0.03,0.03,0.05,0.07,0.1,0.12
	c0.18,0.18,0.27,0.5,0.35,0.73c0.06,0.2,0.14,0.44,0.33,0.54c0.05,0.09,0.12,0.23,0.25,0.34c0.05,0.04,0.1,0.07,0.17,0.08
	c0.7,0.18,1.16,0.17,1.47,0.11C4.76,16.7,4.73,16.73,4.69,16.77z M18.46,9.67c-0.19,0.08-0.3,0.29-0.24,0.5
	c0.05,0.2,0.25,0.34,0.46,0.31c0.01,0,0.01,0,0.02,0c-0.04,0.08-0.1,0.17-0.16,0.24c-0.09,0.12-0.12,0.27-0.07,0.41
	c0.03,0.09,0.09,0.16,0.17,0.21c-0.07,0.03-0.14,0.07-0.21,0.09c-0.11,0.05-0.2,0.14-0.24,0.25c-0.03,0.1-0.03,0.2,0.01,0.29
	c-0.13,0.16-0.66,0.43-1.21,0.61c-0.24-0.02-0.61,0.27-1.69,1.06c-0.05,0.04-0.1,0.09-0.13,0.15c-1.01,2.01-2.64,2.58-2.65,2.58
	c-0.13,0.04-0.23,0.14-0.27,0.27c-0.1,0.31-0.21,0.54-0.34,0.7c-0.05,0.06-0.08,0.14-0.09,0.22c0,0.03-0.01,0.06-0.01,0.09
	c-0.04-0.07-0.1-0.12-0.17-0.15c-1.31-0.65-2.18-0.47-2.28-0.45c-0.11,0.03-0.21,0.1-0.27,0.2c-0.05,0.09-0.12,0.16-0.22,0.21
	c-0.06,0.04-0.12,0.09-0.16,0.15C8.7,17.64,8.62,17.79,8.49,18c0-0.15-0.07-0.3-0.21-0.38c-2.13-1.28-4.55-5.92-4.57-5.95
	c-0.73-1.58-0.6-3.27-0.59-3.29c0-0.02,0-0.04,0-0.06C2.98,5.24,2.49,3.98,2.29,3.58C2.22,3.43,2.06,3.35,1.9,3.35
	c-0.01,0-0.03,0-0.04,0c-0.18,0-0.32-0.13-0.32-0.28c0-0.09,0.04-0.15,0.08-0.18c0.1-0.1,0.14-0.24,0.11-0.38
	C1.7,2.37,1.61,2.25,1.49,2.2C1.4,2.16,1.31,2.14,1.22,2.14C1.26,2.09,1.3,2.04,1.34,2C1.38,1.95,1.41,1.9,1.42,1.85
	c0.05-0.02,0.1-0.06,0.13-0.1c0.05-0.04,0.08-0.09,0.1-0.15c0.05-0.02,0.11-0.04,0.15-0.08C1.86,1.49,1.9,1.44,1.92,1.39
	c0.08,0,0.14-0.02,0.2-0.05c0.05-0.02,0.1-0.06,0.14-0.1C2.31,1.25,2.36,1.25,2.4,1.25c0.06,0,0.12-0.02,0.17-0.05
	C2.61,1.22,2.66,1.23,2.7,1.24c0.05,0.01,0.1,0.01,0.15,0c0.03,0.03,0.06,0.05,0.1,0.07c0.02,0.01,0.07,0.03,0.09,0.04
	c0.03,0.01,0.06,0.01,0.1,0.01c0.03,0.06,0.07,0.1,0.12,0.14c1.63,1.19,3,4.09,3.02,4.12c0.02,0.04,0.04,0.07,0.07,0.1
	c3.06,3.42,6.33,3.42,6.79,3.4C14,9.2,16.62,7.99,17.72,7.47c0.74-0.31,0.93-0.2,0.93-0.2c0.03,0.05,0.02,0.25-0.04,0.42
	c-0.05,0.13-0.03,0.28,0.05,0.39c0.06,0.09,0.15,0.15,0.26,0.17c-0.07,0.08-0.1,0.18-0.1,0.28c0,0.12,0.06,0.23,0.15,0.31
	c0.06,0.05,0.19,0.18,0.18,0.27C19.12,9.27,18.76,9.54,18.46,9.67z"/>
</svg>
