<?xml version="1.0" encoding="utf-8"?>
<!-- Generator: Adobe Illustrator 23.0.0, SVG Export Plug-In . SVG Version: 6.00 Build 0)  -->
<svg version="1.1" id="Camada_1" xmlns="http://www.w3.org/2000/svg" xmlns:xlink="http://www.w3.org/1999/xlink" x="0px" y="0px"
	 viewBox="0 0 20 14.27" style="enable-background:new 0 0 20 14.27;" xml:space="preserve">
<style type="text/css">
	.st0{fill:#FFCC03;}
</style>
<path class="st0" d="M19.57,14.27h-0.85c-0.05,0-0.1-0.02-0.14-0.07c-0.03-0.04-0.05-0.1-0.04-0.15l0.01-0.02
	c0.05-0.24,0.03-0.49,0.01-0.72c-0.01-0.07-0.01-0.14-0.01-0.2c-0.02-0.4-0.06-0.83-0.2-1.2c-0.06-0.15-0.14-0.28-0.24-0.42
	c-0.12-0.18-0.24-0.36-0.31-0.6c-0.02-0.06-0.02-0.12-0.03-0.17c0-0.03-0.01-0.07-0.01-0.09c-0.05-0.12-0.19-0.23-0.33-0.34
	c0,0-0.01-0.01-0.01-0.01c0,0.01,0,0.03,0,0.04c-0.01,0.09-0.02,0.19-0.06,0.3c-0.06,0.14-0.2,0.28-0.33,0.41
	c-0.06,0.06-0.11,0.11-0.16,0.16c-0.14,0.17-0.31,0.36-0.42,0.54l-0.07,0.12c-0.29,0.48-0.58,0.97-0.6,1.65
	c0,0.05-0.02,0.1-0.06,0.13c-0.04,0.03-0.09,0.05-0.14,0.04c-0.16-0.02-0.31,0.02-0.42,0.11c-0.09,0.07-0.15,0.17-0.16,0.28
	c0,0.01,0,0.02,0,0.02c0,0.05-0.02,0.1-0.05,0.13c-0.03,0.04-0.08,0.05-0.13,0.05h-1.24c-0.06,0-0.12-0.03-0.15-0.09
	s-0.03-0.12,0-0.18c0.07-0.13,0.16-0.24,0.25-0.34c0.06-0.08,0.13-0.15,0.17-0.22c0.05-0.08,0.13-0.11,0.18-0.12
	c0.18-0.42,0.42-0.77,0.65-1.11c0.24-0.34,0.46-0.67,0.62-1.06c-0.03,0-0.07,0-0.1,0c-0.03,0-0.07,0-0.1-0.01
	c-0.03,0-0.06-0.01-0.08-0.03c-0.09-0.06-0.13-0.14-0.14-0.22c-0.14,0.04-0.32,0.05-0.49-0.01c0,0-0.01,0-0.01,0
	c-0.01,0-0.02-0.01-0.02-0.01c-0.03-0.01-0.06-0.02-0.09-0.04c-0.01,0-0.01-0.01-0.02-0.02l0,0c-0.1-0.08-0.13-0.19-0.12-0.27
	c0-0.07,0-0.12,0.01-0.17c0.01-0.06,0.01-0.11,0-0.17c-0.01-0.05-0.11-0.12-0.18-0.17c-0.08-0.06-0.17-0.11-0.22-0.19
	c-0.1-0.14-0.13-0.31-0.17-0.45c-0.02-0.08-0.05-0.22-0.08-0.24c-0.07,0-0.33,0.13-0.47,0.2c-0.11,0.05-0.21,0.11-0.29,0.14
	C12.43,9.61,12,9.73,11.65,9.75c-0.47,0.03-0.91-0.08-1.34-0.19c-0.16-0.04-0.33-0.08-0.5-0.12C9.28,9.33,8.84,9.26,8.38,9.25
	c-0.2,0.24-0.15,0.79-0.12,1c0.03,0.07,0.05,0.13,0.07,0.19c0.04,0.15,0.02,0.3-0.01,0.44c-0.02,0.09-0.04,0.18-0.03,0.27
	c0.04,0.57,0.23,1.14,0.4,1.7c0.05,0.15,0.09,0.3,0.14,0.44c0.02,0.08-0.01,0.16-0.08,0.2c-0.12,0.08-0.11,0.23-0.05,0.56
	c0.01,0.05,0,0.11-0.04,0.15c-0.03,0.04-0.08,0.07-0.14,0.07H7.28c-0.06,0-0.11-0.03-0.14-0.07c-0.03-0.05-0.04-0.11-0.03-0.16
	c0.05-0.16,0.15-0.29,0.23-0.4c0.09-0.12,0.16-0.22,0.18-0.32c0.03-0.2-0.03-0.46-0.08-0.71c-0.02-0.11-0.05-0.22-0.07-0.33
	c-0.05-0.32-0.11-0.67-0.15-1.05c-0.14-0.21-0.24-0.45-0.33-0.68c-0.02-0.04-0.04-0.09-0.05-0.13c0,0.02-0.01,0.05-0.01,0.07
	c-0.02,0.15-0.04,0.3-0.08,0.45c-0.04,0.15-0.09,0.3-0.14,0.44c-0.06,0.17-0.12,0.33-0.14,0.49c-0.05,0.35-0.04,0.67-0.03,1.01
	c0.01,0.38,0.03,0.76-0.06,1.2c-0.01,0.03-0.02,0.06-0.04,0.08c-0.05,0.06-0.12,0.09-0.17,0.11c-0.02,0.01-0.04,0.01-0.06,0.01H5.02
	c-0.07,0-0.13-0.04-0.16-0.1s-0.02-0.14,0.03-0.19l0.03-0.04c0.12-0.13,0.22-0.25,0.25-0.38c0.03-0.12,0.03-0.26,0.02-0.43
	c0-0.11-0.01-0.23,0-0.36c0.01-0.18,0.03-0.37,0.05-0.55c0.02-0.24,0.05-0.46,0.04-0.64c0-0.15-0.03-0.3-0.06-0.45
	c-0.03-0.16-0.06-0.33-0.07-0.49c0-0.11,0-0.23,0.01-0.36c0.01-0.21,0.01-0.42-0.01-0.58C5.13,9.69,5.05,9.65,5,9.63
	C4.94,9.61,4.88,9.58,4.83,9.54C4.55,9.35,4.37,9.05,4.22,8.79L4.19,8.74C4.13,8.64,4.07,8.54,4,8.46C3.94,8.37,3.87,8.31,3.79,8.25
	c-0.12-0.1-0.26-0.21-0.32-0.44C3.45,7.72,3.45,7.63,3.45,7.54c0-0.07,0-0.15-0.02-0.2C3.41,7.28,3.37,7.19,3.32,7.11
	C3.23,6.95,3.13,6.78,3.08,6.59c-0.03-0.1-0.04-0.21-0.06-0.3C3.01,6.17,2.99,6.04,2.96,5.99C2.89,5.9,2.45,5.69,2.32,5.7
	c-0.01,0-0.04,0.02-0.06,0.03C2.22,5.74,2.17,5.77,2.12,5.78C1.7,5.87,1.23,5.76,0.93,5.49L0.89,5.45c0,0-0.01-0.01-0.01-0.01
	c-0.12-0.12-0.19-0.26-0.2-0.41C0.67,4.95,0.7,4.88,0.72,4.82c0.01-0.04,0.03-0.07,0.03-0.1c0-0.01-0.01-0.03-0.01-0.05
	C0.71,4.62,0.69,4.55,0.7,4.46c0.04-0.21,0.17-0.3,0.25-0.36c0,0,0,0,0,0C1,3.87,1.07,3.4,1,3.06c-1.08-0.39-1.02-1.07-0.98-1.28
	C0.06,1.6,0.2,1.32,0.4,1.35c0.22,0.03,0.38,0.16,0.52,0.27C0.98,1.67,1.04,1.71,1.1,1.75c0.02-0.02,0.04-0.04,0.05-0.06
	c-0.14-0.04-0.26-0.11-0.37-0.2C0.64,1.37,0.55,1.22,0.51,1.05C0.43,0.72,0.53,0.23,0.79,0.04c0.08-0.06,0.19-0.04,0.25,0.03
	C1.16,0.22,1.15,0.4,1.15,0.53c0,0.07-0.01,0.14,0.01,0.18c0.06,0.16,0.35,0.13,0.51,0.1C1.7,0.8,1.72,0.8,1.75,0.79
	c0.22-0.05,0.38-0.03,0.55,0C2.36,0.79,2.42,0.8,2.48,0.81c0.12,0.01,0.25,0.06,0.37,0.1C2.97,0.95,3.1,1,3.2,1C3.2,1,3.2,1,3.22,1
	C3.25,0.99,3.3,0.97,3.37,0.98C3.48,1,3.59,1.06,3.68,1.1c0.06,0.03,0.14,0.07,0.17,0.07c0.13-0.01,0.2-0.12,0.31-0.32
	c0.12-0.21,0.27-0.47,0.6-0.53c0.06-0.01,0.12,0.01,0.16,0.05C5,0.46,5.04,0.55,5.03,0.65C5.03,0.78,4.97,0.9,4.9,1.02
	C4.87,1.08,4.84,1.14,4.82,1.2C4.8,1.25,4.78,1.31,4.77,1.37C4.74,1.45,4.72,1.55,4.68,1.63c0.02,0,0.04-0.01,0.06-0.01
	c0.12-0.01,0.23-0.02,0.33-0.01c0.01,0,0.02,0,0.03,0c0.11,0.01,0.2,0.02,0.29,0.05C5.6,1.72,5.73,1.85,5.77,2.02
	c0.23,0,0.47,0.03,0.73,0.07c0.14,0.02,0.27,0.05,0.4,0.07c0.28,0.05,0.54,0.11,0.82,0.12c0.25,0.02,0.51,0,0.78-0.01l0.2-0.01
	c0.98-0.04,1.99-0.09,2.98-0.04c0.36,0.02,0.72,0.06,1.07,0.11c0.42,0.05,0.82,0.11,1.23,0.11c0.23,0,0.47-0.03,0.7-0.05
	c0.2-0.02,0.41-0.05,0.62-0.05c0.28-0.01,0.56,0.03,0.82,0.06c0.13,0.02,0.26,0.03,0.4,0.05c0.18,0.02,0.37,0.03,0.56,0.04
	c0.58,0.03,1.19,0.07,1.65,0.31c0.23,0.08,0.43,0.21,0.6,0.4c0.96,1.09,0.55,3.78,0.54,3.89C19.86,7.44,19.9,7.9,19.95,8.3
	c0.05,0.51,0.1,0.91-0.01,1.13c-0.03,0.06-0.08,0.09-0.14,0.1c-0.02,0-0.05,0-0.07,0c-0.01,0-0.03-0.01-0.04-0.01
	c0.14,0.28,0.09,0.63,0.04,0.94c-0.02,0.12-0.04,0.22-0.04,0.32c-0.03,0.38,0.03,0.82,0.09,1.25l0.01,0.1
	c0.02,0.17,0.06,0.33,0.1,0.49c0.03,0.13,0.06,0.26,0.08,0.38c0.14,0.65-0.14,1.06-0.21,1.14l-0.01,0.03
	C19.69,14.23,19.63,14.27,19.57,14.27z M18.93,13.91h0.54c0.06-0.08,0.22-0.37,0.13-0.83c0,0,0-0.01,0-0.01
	c-0.02-0.11-0.05-0.23-0.07-0.36c-0.04-0.17-0.08-0.34-0.1-0.52l-0.01-0.1c-0.06-0.45-0.13-0.91-0.1-1.33
	c0.01-0.12,0.03-0.24,0.05-0.36c0.04-0.27,0.09-0.55-0.01-0.72c-0.05-0.09-0.12-0.15-0.2-0.22c-0.14-0.12-0.32-0.26-0.36-0.56
	c-0.02-0.12-0.02-0.28,0-0.5c0.02-0.33,0.07-0.66,0.12-1.02c0.03-0.24,0.07-0.5,0.1-0.75c0.04-0.33,0.07-0.64,0.11-0.9
	c0.01-0.11,0.04-0.22,0.06-0.33c0.03-0.18,0.07-0.35,0.07-0.52l0-0.05c0-0.09,0.08-0.17,0.17-0.17c0.06,0,0.12,0.03,0.15,0.08
	c-0.07-0.51-0.21-1-0.49-1.31c-0.13-0.15-0.28-0.25-0.45-0.3c-0.01,0-0.02-0.01-0.03-0.01c-0.39-0.21-0.94-0.24-1.52-0.28
	c-0.19-0.01-0.38-0.02-0.57-0.04c-0.14-0.01-0.28-0.03-0.41-0.05c-0.26-0.03-0.52-0.07-0.77-0.06c-0.19,0.01-0.38,0.03-0.59,0.05
	c-0.25,0.03-0.5,0.06-0.75,0.06c-0.43,0-0.86-0.06-1.27-0.11c-0.34-0.04-0.69-0.09-1.04-0.11c-0.97-0.04-1.97,0-2.95,0.04l-0.2,0.01
	C8.26,2.65,7.98,2.66,7.71,2.65C7.4,2.63,7.12,2.57,6.84,2.52C6.71,2.49,6.58,2.47,6.45,2.44C6.14,2.39,5.88,2.37,5.61,2.38
	c-0.05,0-0.1-0.02-0.14-0.06C5.44,2.28,5.42,2.23,5.43,2.18c0.01-0.07,0-0.13-0.14-0.18C5.23,1.99,5.17,1.98,5.1,1.97
	c0,0-0.01,0-0.02,0c0,0,0,0-0.01,0c-0.08,0-0.18,0-0.27,0.01C4.74,1.99,4.7,1.99,4.66,2C4.64,2,4.63,2,4.63,2c0,0-0.01,0-0.01,0
	c-0.05,0.01-0.1,0.02-0.15,0.04C4.41,2.07,4.34,2.1,4.28,2.14C4.13,2.22,3.96,2.31,3.79,2.25C3.67,2.21,3.58,2.11,3.51,1.95
	C3.48,1.9,3.48,1.84,3.51,1.79C3.54,1.74,3.59,1.71,3.64,1.7c0.1-0.01,0.2-0.02,0.28-0.02c0.14,0,0.26,0,0.34-0.06
	c0.08-0.06,0.12-0.2,0.16-0.35c0.02-0.07,0.04-0.13,0.06-0.2C4.5,1.01,4.54,0.95,4.57,0.89c-0.03,0.04-0.06,0.1-0.09,0.15
	c-0.12,0.21-0.27,0.47-0.6,0.5C3.76,1.55,3.64,1.48,3.52,1.42C3.45,1.39,3.38,1.35,3.33,1.34C3.29,1.35,3.24,1.36,3.18,1.36
	C3.03,1.35,2.87,1.3,2.73,1.24c-0.1-0.04-0.2-0.08-0.27-0.08c-0.07,0-0.14-0.01-0.21-0.02c-0.14-0.02-0.26-0.04-0.41,0
	c-0.03,0.01-0.06,0.01-0.1,0.02c-0.58,0.11-0.81-0.1-0.89-0.27c0,0.03,0.01,0.06,0.01,0.08c0.02,0.1,0.07,0.18,0.16,0.25
	c0.1,0.08,0.22,0.14,0.37,0.16c0.09,0.01,0.15,0.08,0.15,0.17c0.01,0.12-0.02,0.22-0.07,0.31C1.42,1.93,1.37,1.98,1.33,2.02
	C1.31,2.04,1.29,2.06,1.28,2.08C1.23,2.14,1.16,2.16,1.09,2.14C0.94,2.09,0.82,1.99,0.7,1.9C0.61,1.83,0.52,1.76,0.42,1.72
	c-0.04,0.07-0.09,0.2-0.06,0.37C0.43,2.37,0.71,2.6,1.2,2.75c0.05,0.02,0.1,0.06,0.11,0.11C1.45,3.28,1.37,3.85,1.3,4.24
	C1.29,4.29,1.26,4.32,1.23,4.35C1.2,4.37,1.18,4.39,1.15,4.4c-0.07,0.05-0.09,0.06-0.1,0.12c0,0,0.01,0.02,0.01,0.03
	C1.08,4.6,1.11,4.66,1.1,4.74c0,0.09-0.03,0.16-0.05,0.21C1.05,4.97,1.04,4.99,1.04,5c0.01,0.06,0.04,0.12,0.1,0.19c0,0,0,0,0,0
	l0.04,0.04c0.17,0.15,0.51,0.28,0.86,0.2c0.01,0,0.04-0.02,0.06-0.03c0.06-0.03,0.13-0.06,0.21-0.06c0.23-0.01,0.79,0.24,0.94,0.45
	c0.08,0.12,0.1,0.27,0.13,0.44C3.39,6.32,3.41,6.41,3.43,6.5c0.04,0.15,0.12,0.3,0.2,0.43c0.06,0.1,0.11,0.2,0.15,0.3
	c0.03,0.1,0.03,0.21,0.03,0.31c0,0.07,0,0.14,0.01,0.18c0.03,0.12,0.09,0.17,0.2,0.26C4.1,8.04,4.2,8.12,4.29,8.24
	c0.07,0.1,0.14,0.2,0.2,0.31l0.03,0.05c0.15,0.24,0.29,0.5,0.51,0.64C5.06,9.26,5.1,9.28,5.15,9.3C5.28,9.36,5.48,9.45,5.5,9.66
	c0.02,0.19,0.01,0.42,0.01,0.63c0,0.12-0.01,0.24-0.01,0.34c0,0.13,0.03,0.28,0.06,0.43c0.03,0.16,0.07,0.33,0.07,0.51
	c0.01,0.2-0.02,0.43-0.04,0.68c-0.02,0.18-0.04,0.36-0.04,0.53c-0.01,0.11,0,0.22,0,0.33c0.01,0.19,0.02,0.37-0.03,0.54
	c-0.03,0.1-0.07,0.18-0.12,0.26h0.64c0.06-0.36,0.04-0.68,0.03-1.02c-0.01-0.34-0.02-0.69,0.04-1.08c0.03-0.19,0.1-0.38,0.16-0.55
	c0.05-0.14,0.1-0.27,0.13-0.4c0.03-0.14,0.05-0.28,0.07-0.42c0.03-0.2,0.06-0.41,0.12-0.62C6.61,9.76,6.67,9.71,6.74,9.7
	c0.07-0.01,0.14,0.02,0.17,0.08c0.13,0.19,0.22,0.42,0.3,0.63c0.1,0.24,0.19,0.46,0.32,0.64c0.02,0.03,0.03,0.06,0.03,0.09
	c0.03,0.38,0.09,0.74,0.15,1.08c0.02,0.1,0.04,0.2,0.06,0.3c0.06,0.28,0.13,0.57,0.09,0.84c-0.03,0.2-0.15,0.35-0.25,0.48
	c-0.02,0.02-0.03,0.04-0.04,0.06h0.73c-0.03-0.23-0.03-0.46,0.13-0.63c-0.03-0.11-0.07-0.22-0.1-0.32
	c-0.18-0.57-0.37-1.16-0.42-1.78c-0.01-0.14,0.01-0.26,0.03-0.37c0.02-0.11,0.04-0.2,0.02-0.27c-0.01-0.05-0.03-0.1-0.06-0.16
	c-0.01-0.02-0.01-0.04-0.02-0.06C7.88,10.13,7.76,9.3,8.19,8.93c0.03-0.03,0.07-0.05,0.12-0.04c0.52,0,0.99,0.08,1.59,0.2
	c0.17,0.04,0.35,0.08,0.51,0.12c0.41,0.11,0.81,0.21,1.22,0.18c0.31-0.02,0.71-0.13,0.95-0.23c0.07-0.03,0.16-0.07,0.27-0.12
	c0.34-0.17,0.55-0.27,0.71-0.23c0.25,0.06,0.3,0.31,0.35,0.51c0.03,0.12,0.05,0.24,0.11,0.32c0.02,0.03,0.08,0.07,0.13,0.1
	c0.13,0.09,0.3,0.21,0.33,0.41c0.02,0.1,0.01,0.18,0,0.26c0,0.05-0.01,0.09-0.01,0.13c0,0,0.01,0,0.01,0c0.09,0.03,0.2,0.03,0.29,0
	c-0.02-0.07-0.07-0.26,0.11-0.37c0.04-0.03,0.09-0.03,0.14-0.02c0.31,0.07,0.25,0.39,0.22,0.52c-0.01,0.03-0.02,0.08-0.02,0.11
	c0.14,0.01,0.36,0.02,0.45,0.24c0.02,0.04,0.02,0.08,0,0.13c-0.18,0.48-0.45,0.88-0.71,1.26c-0.25,0.36-0.48,0.69-0.64,1.1
	c0,0.01-0.01,0.01-0.01,0.02c-0.05,0.1-0.15,0.12-0.2,0.13c-0.05,0.08-0.12,0.15-0.18,0.23c-0.01,0.01-0.01,0.01-0.01,0.02h0.73
	c0.04-0.16,0.14-0.31,0.28-0.42c0.14-0.11,0.31-0.17,0.5-0.19c0.06-0.68,0.37-1.19,0.64-1.64l0.07-0.12
	c0.13-0.21,0.3-0.41,0.45-0.59c0.05-0.06,0.12-0.12,0.18-0.19c0.1-0.1,0.22-0.21,0.25-0.29c0.02-0.05,0.03-0.12,0.03-0.19
	c0.01-0.13,0.02-0.29,0.15-0.43c0.03-0.04,0.08-0.06,0.13-0.06c0.05,0,0.1,0.02,0.13,0.05c0.04,0.05,0.11,0.1,0.18,0.15
	c0.17,0.13,0.37,0.28,0.45,0.5c0.02,0.07,0.03,0.12,0.03,0.18c0,0.04,0.01,0.07,0.01,0.09c0.06,0.19,0.16,0.34,0.27,0.51
	c0.1,0.15,0.2,0.3,0.27,0.48c0.17,0.43,0.21,0.89,0.23,1.32c0,0.06,0.01,0.12,0.01,0.19C18.93,13.47,18.95,13.69,18.93,13.91z
	 M14.13,13.63C14.13,13.63,14.13,13.63,14.13,13.63C14.13,13.63,14.13,13.63,14.13,13.63z M19.43,8.91c0,0,0.01,0.01,0.01,0.01
	c0.07,0.08,0.14,0.14,0.2,0.18c0.01-0.19-0.02-0.49-0.05-0.77c-0.03-0.3-0.07-0.63-0.07-0.95c-0.01,0.08-0.02,0.17-0.03,0.25
	C19.44,8.09,19.37,8.76,19.43,8.91z M19.43,8.92C19.43,8.92,19.43,8.92,19.43,8.92C19.43,8.92,19.43,8.92,19.43,8.92z M19.4,8.89
	C19.4,8.89,19.4,8.89,19.4,8.89C19.4,8.89,19.4,8.89,19.4,8.89z"/>
</svg>
