<?xml version="1.0" encoding="utf-8"?>
<!-- Generator: Adobe Illustrator 23.0.0, SVG Export Plug-In . SVG Version: 6.00 Build 0)  -->
<svg version="1.1" id="Camada_1" xmlns="http://www.w3.org/2000/svg" xmlns:xlink="http://www.w3.org/1999/xlink" x="0px" y="0px"
	 viewBox="0 0 20 14.13" style="enable-background:new 0 0 20 14.13;" xml:space="preserve">
<style type="text/css">
	.st0{fill:#FFCC03;}
</style>
<path class="st0" d="M5.86,14.13c-0.15,0-0.3-0.05-0.4-0.11c-0.1,0.01-0.28,0.02-0.4-0.01c-0.07-0.02-0.18,0-0.23,0
	c-0.05,0.02-0.1,0.03-0.16,0c-0.09-0.04-0.13-0.13-0.11-0.22c0.01-0.05,0.04-0.1,0.08-0.13c0.02-0.02,0.07-0.08,0.17-0.22
	c0.19-0.26,0.35-0.31,0.47-0.35c0.06-0.02,0.09-0.03,0.13-0.07c0.17-0.17,0.27-0.54,0.27-1c0-0.16,0.01-0.42,0.02-0.72
	c0.02-0.73,0.05-1.74-0.01-2.07C5.6,8.82,5.56,8.77,5.24,8.39L5.16,8.31c-0.39-0.46-0.81-1.08-0.93-1.3
	C4.18,6.9,4.16,6.74,4.14,6.53C4.13,6.36,4.09,5.95,3.99,5.91C3.74,5.78,3.71,5.55,3.7,5.42C3.69,5.31,3.68,5.27,3.63,5.24
	C3.43,5.1,3.41,4.95,3.4,4.82c0-0.07-0.01-0.11-0.06-0.18C3.22,4.49,3.19,4.3,3.16,4.1C3.12,3.88,3.09,3.67,2.95,3.43
	c-0.09-0.15-0.09-0.16-0.43,0c-0.19,0.09-0.43,0.2-0.76,0.26C1.36,3.77,1.07,3.73,0.88,3.58C0.86,3.56,0.84,3.55,0.83,3.53
	C0.77,3.55,0.72,3.55,0.66,3.52c-0.2-0.08-0.14-0.34-0.11-0.49c0.1-0.48,0.3-0.57,0.55-0.61C0.98,2.4,0.89,2.34,0.77,2.24
	C0.71,2.19,0.62,2.12,0.49,2.03C0.13,1.79,0.05,1.68,0.07,1.45c0-0.02,0-0.04,0-0.06l0,0c0-0.04-0.01-0.1-0.03-0.16
	c-0.03-0.16-0.06-0.3,0.03-0.42c0.04-0.06,0.11-0.09,0.18-0.1l0.02,0C0.41,0.7,0.73,0.67,1.32,0.67c0.45,0,0.51-0.08,0.59-0.18
	L1.98,0.4C2.1,0.23,2.17,0.19,2.49,0.1C2.9-0.01,3.34-0.03,4.05,0.04C4.8,0.12,5.02,0.64,5.13,0.88c0.02,0.04,0.03,0.07,0.04,0.1
	c0.25,0.46,1.18,1.29,1.37,1.35c0.18,0.03,0.33,0.22,0.51,0.44c0.08,0.1,0.22,0.28,0.29,0.31c0.13,0,0.28,0.07,0.52,0.18
	c0.33,0.14,0.83,0.36,1.5,0.5c0.64,0.13,1.54-0.02,2.41-0.18c0.58-0.1,1.13-0.2,1.59-0.21c0.71-0.02,0.98,0.1,1.28,0.24
	c0.21,0.1,0.44,0.21,0.9,0.3c1.4,0.28,1.75,2.08,1.82,2.63c0.1,0.75,0.55,1.66,1.48,1.78c0.99,0.13,1.18,0.82,1.14,1.17
	c-0.01,0.07-0.05,0.13-0.12,0.16c-0.07,0.03-0.14,0.02-0.2-0.02c-0.26-0.2-0.66-0.2-1.08-0.2c-0.01,0-0.01,0-0.02,0
	c-0.58,0-1.24-0.01-1.66-0.57c-0.24-0.32-0.39-0.67-0.48-0.98c0,0,0,0,0,0c-0.13,0.36-0.25,0.67-0.21,1.13
	c0.08,0.88,0.43,1.31,0.63,1.53c0.04,0.05,0.07,0.08,0.11,0.12c0.15,0.17,0.26,0.29,0.26,0.61c0,0.15-0.03,0.61-0.07,1.1
	c-0.03,0.42-0.07,1-0.07,1.08c0.01,0.07,0,0.15-0.05,0.2c-0.03,0.03-0.06,0.05-0.08,0.06c0,0.03,0,0.07-0.01,0.11
	c-0.04,0.11-0.15,0.15-0.2,0.17c-0.2,0.08-0.55,0.04-0.66,0.02c-0.1,0-0.4,0-0.58-0.11c-0.02-0.01-0.03-0.02-0.04-0.02
	c-0.05,0.01-0.09,0-0.14-0.03c-0.08-0.06-0.11-0.16-0.07-0.25c0.01-0.01,0.02-0.03,0.03-0.04l0,0c0.03-0.04,0.2-0.22,0.34-0.3
	c0.09-0.05,0.25-0.11,0.35-0.15c0.18-0.69,0.16-0.97-0.25-1.81c-0.03-0.06-0.06-0.12-0.1-0.18c-0.04,0.69-0.08,1.52-0.07,1.62
	c0.02,0.15-0.05,0.26-0.11,0.35c-0.01,0.02-0.03,0.04-0.04,0.06c0.02,0.04,0.03,0.1,0,0.17c-0.04,0.11-0.15,0.15-0.2,0.17
	c-0.2,0.08-0.55,0.04-0.66,0.02c-0.1,0-0.4,0-0.57-0.11c-0.02-0.01-0.03-0.02-0.04-0.02c-0.04,0-0.07,0-0.11-0.02
	c-0.1-0.04-0.14-0.16-0.1-0.26c0.07-0.17,0.22-0.48,0.37-0.57c0.09-0.05,0.25-0.11,0.35-0.15c0.16-0.66,0.16-1.23-0.27-2.1
	c-0.28-0.56-0.72-1-1.04-1.31c-0.19-0.19-0.35-0.34-0.42-0.48c-0.04-0.06-0.09-0.17-0.16-0.32c-0.1-0.21-0.24-0.49-0.39-0.78
	c-0.43,0.15-0.98,0.47-1.63,0.97C9.6,9.07,8.01,8.92,7.5,8.85L7.38,9.14c-0.19,0.48-0.59,2.55-0.44,2.92
	c0.18,0.44,0.04,0.6-0.12,0.75c-0.03,0.03-0.06,0.06-0.09,0.09c-0.03,0.05-0.07,0.19-0.11,0.31c-0.07,0.27-0.15,0.58-0.36,0.77
	C6.14,14.09,5.99,14.13,5.86,14.13z M4.78,14.02c-0.01,0-0.01,0-0.01,0C4.77,14.02,4.77,14.02,4.78,14.02z M5.51,13.62
	c0.04,0,0.08,0.01,0.12,0.04c0.01,0.01,0.23,0.16,0.37,0.03c0.12-0.11,0.19-0.37,0.24-0.57c0.05-0.18,0.09-0.34,0.17-0.45
	c0.05-0.07,0.1-0.12,0.15-0.15c0.08-0.07,0.1-0.09,0.02-0.3C6.35,11.66,6.85,9.39,7.01,9l0.18-0.44c0.04-0.09,0.13-0.14,0.22-0.12
	c0.02,0,1.93,0.34,2.87-0.38c0.79-0.6,1.41-0.95,1.92-1.09c0.09-0.02,0.18,0.02,0.22,0.09C12.62,7.4,12.78,7.75,12.91,8
	c0.06,0.13,0.12,0.24,0.15,0.3c0.05,0.09,0.19,0.23,0.36,0.39c0.34,0.33,0.8,0.79,1.11,1.42c0.45,0.9,0.52,1.58,0.27,2.49
	c-0.02,0.06-0.07,0.12-0.13,0.14c-0.11,0.04-0.3,0.11-0.38,0.15c-0.02,0.02-0.07,0.09-0.11,0.18c0.06,0.03,0.24,0.05,0.37,0.05
	c0.01,0,0.02,0,0.04,0c0.13,0.02,0.3,0.03,0.4,0.02c0-0.04,0.01-0.08,0.03-0.12c0.03-0.06,0.06-0.1,0.08-0.15
	c0.02-0.03,0.04-0.07,0.05-0.08c-0.03-0.15,0.1-2.24,0.1-2.27c0.01-0.08,0.06-0.15,0.14-0.18c0.08-0.02,0.16,0,0.22,0.07
	c0.19,0.24,0.35,0.48,0.46,0.72c0.48,0.97,0.48,1.33,0.25,2.19c-0.02,0.06-0.07,0.12-0.13,0.14c-0.11,0.04-0.3,0.11-0.38,0.15
	c0,0,0,0,0,0c0.08,0.01,0.18,0.02,0.26,0.02c0.01,0,0.02,0,0.04,0c0.13,0.02,0.3,0.03,0.4,0.02c0-0.04,0.01-0.08,0.03-0.12
	c0.02-0.05,0.06-0.11,0.13-0.14c0-0.15,0.02-0.43,0.07-1.03c0.03-0.46,0.07-0.94,0.07-1.07c0-0.17-0.02-0.2-0.16-0.35
	c-0.03-0.04-0.07-0.08-0.11-0.13c-0.21-0.24-0.63-0.75-0.72-1.76c-0.05-0.55,0.1-0.93,0.24-1.3c0.11-0.29,0.21-0.57,0.23-0.94
	c0-0.01,0-0.02,0-0.02c0.01-0.11,0.1-0.19,0.21-0.19c0.11,0.01,0.19,0.1,0.19,0.21c0,0,0,0.01,0,0.01c0,0.1-0.02,1.05,0.54,1.81
	c0.3,0.41,0.81,0.41,1.36,0.41c0.31,0,0.64,0,0.93,0.09c-0.09-0.17-0.29-0.35-0.72-0.41c-1.16-0.15-1.71-1.23-1.82-2.12
	c-0.05-0.34-0.33-2.05-1.51-2.29c-0.51-0.1-0.77-0.23-0.99-0.33c-0.28-0.13-0.48-0.22-1.1-0.21c-0.44,0.01-0.97,0.1-1.54,0.2
	C10.93,4.13,9.99,4.3,9.27,4.15C8.57,4,8.05,3.78,7.7,3.63C7.55,3.56,7.37,3.48,7.32,3.48c-0.22,0-0.39-0.21-0.58-0.46
	c-0.08-0.1-0.22-0.28-0.28-0.3C6.14,2.66,5.11,1.69,4.82,1.17C4.8,1.14,4.78,1.09,4.76,1.04c-0.1-0.23-0.23-0.55-0.75-0.6
	C3.25,0.36,2.9,0.4,2.6,0.49C2.36,0.55,2.35,0.56,2.3,0.64L2.23,0.73c-0.15,0.19-0.3,0.34-0.91,0.34c-0.44,0-0.73,0.02-0.9,0.03
	c0,0.02,0.01,0.04,0.01,0.05C0.45,1.22,0.46,1.3,0.47,1.37l0,0c0,0.05,0,0.08,0,0.12c0,0.01,0,0.01,0,0.02
	c0.02,0.02,0.07,0.07,0.25,0.2c0.14,0.1,0.24,0.17,0.31,0.23c0.13,0.11,0.13,0.11,0.25,0.09c0.06-0.01,0.13-0.02,0.21-0.03
	c0.3-0.05,0.68-0.12,0.94,0.08c0.05,0.04,0.08,0.1,0.08,0.17c0,0.07-0.04,0.13-0.1,0.16C2.36,2.43,2.13,2.56,1.94,2.56
	c-0.02,0-0.09,0.04-0.14,0.07C1.68,2.68,1.54,2.76,1.36,2.79C1.3,2.8,1.25,2.81,1.2,2.81C1.05,2.83,1.01,2.83,0.96,3.03
	c0.07,0.03,0.12,0.1,0.13,0.18c0,0,0,0,0,0c0,0,0.01,0.03,0.05,0.06C1.18,3.3,1.32,3.37,1.68,3.3c0.28-0.06,0.5-0.15,0.67-0.23
	c0.31-0.14,0.66-0.3,0.94,0.16c0.18,0.3,0.22,0.58,0.26,0.8C3.58,4.2,3.6,4.32,3.66,4.4C3.78,4.57,3.79,4.71,3.8,4.8
	c0,0.07,0,0.07,0.07,0.12c0.2,0.14,0.22,0.33,0.23,0.46C4.11,5.5,4.12,5.52,4.17,5.55C4.47,5.7,4.51,6.12,4.54,6.5
	c0.01,0.12,0.03,0.28,0.05,0.32c0.11,0.2,0.51,0.79,0.88,1.23l0.07,0.09c0.33,0.39,0.43,0.51,0.52,1.03
	c0.07,0.37,0.04,1.36,0.02,2.15c-0.01,0.3-0.02,0.55-0.01,0.71c0,0.58-0.14,1.03-0.39,1.28c-0.11,0.11-0.22,0.14-0.3,0.17
	c-0.08,0.02-0.14,0.04-0.22,0.15c0.07,0.01,0.21,0.01,0.32-0.01C5.49,13.62,5.5,13.62,5.51,13.62z M14.08,13.28
	c0,0.01-0.01,0.02-0.01,0.02C14.07,13.29,14.08,13.29,14.08,13.28z M14.08,13.28C14.08,13.28,14.08,13.28,14.08,13.28
	C14.08,13.28,14.08,13.28,14.08,13.28z M14.08,13.28C14.08,13.28,14.08,13.28,14.08,13.28C14.08,13.28,14.08,13.28,14.08,13.28z
	 M14.08,13.28C14.08,13.28,14.08,13.28,14.08,13.28L14.08,13.28z"/>
</svg>
