<?xml version="1.0" encoding="utf-8"?>
<!-- Generator: Adobe Illustrator 23.0.0, SVG Export Plug-In . SVG Version: 6.00 Build 0)  -->
<svg version="1.1" id="Camada_1" xmlns="http://www.w3.org/2000/svg" xmlns:xlink="http://www.w3.org/1999/xlink" x="0px" y="0px"
	 viewBox="0 0 20 9.9" style="enable-background:new 0 0 20 9.9;" xml:space="preserve">
<style type="text/css">
	.st0{fill:#FFCC03;}
</style>
<path class="st0" d="M5.71,9.9c-0.01,0-0.02,0-0.04,0c-0.09,0-0.15-0.01-0.16-0.01l-0.03,0c-0.07-0.01-0.13-0.04-0.17-0.1
	C5.28,9.73,5.26,9.67,5.27,9.6l0.07-0.37C5.32,9.13,5.34,9.02,5.42,8.92c0.1-0.13,0.36-0.98,0.39-1.18C5.79,7.68,5.79,7.62,5.8,7.54
	c0-0.08,0.01-0.22,0.01-0.49C5.8,6.74,5.72,6.43,5.66,6.27C5.29,6.19,4.98,6.12,4.88,6.09c-0.3-0.1-0.46-0.23-0.59-0.34
	C4.23,5.7,4.18,5.66,4.13,5.63C4.07,5.6,3.85,5.57,3.71,5.55L3.58,5.54C3.29,5.5,3.12,5.46,3.01,5.35C2.97,5.3,2.8,5.26,2.7,5.24
	C2.63,5.22,2.56,5.21,2.5,5.19C2.44,5.17,2.35,5.14,2.27,5.1C2.16,5.06,2.06,5.02,1.97,5C1.89,4.97,1.85,4.97,1.84,4.97
	c-0.29,0-1.23-0.43-1.4-0.58C0.32,4.28,0.26,4.16,0.27,4.03c0-0.01,0-0.02,0-0.03C0.26,3.97,0.24,3.95,0.22,3.92
	c0-0.01-0.01-0.03-0.02-0.04C0.19,3.81,0.18,3.72,0.16,3.62C0.15,3.5,0.13,3.33,0.09,3.23L0.08,3.2C0.05,3.14,0.02,3.09,0.01,3.05
	c0-0.01,0-0.02-0.01-0.03h0C0,3,0,2.98,0,2.96c0-0.1,0.05-0.18,0.12-0.23C0.16,2.7,0.26,2.65,0.4,2.7C0.42,2.7,0.43,2.71,0.44,2.71
	c0.02,0.01,0.05,0.02,0.07,0.04c0,0,0,0,0,0c0,0,0.1,0.06,0.24,0.04C0.85,2.79,0.9,2.76,0.99,2.72C1.02,2.7,1.05,2.68,1.08,2.67
	c0.1-0.04,0.18-0.07,0.27-0.09c0.17-0.03,0.62-0.35,0.7-0.45C2.07,2.11,2.1,2.08,2.12,2.05c0.09-0.1,0.18-0.22,0.23-0.34
	C2.29,1.61,2.17,1.42,2.02,1.3C1.87,1.18,1.79,1.02,1.79,0.83c0-0.23,0.14-0.48,0.31-0.56c0.07-0.04,0.16-0.04,0.23-0.01
	c0.14,0.05,0.19,0.17,0.25,0.29c0.03,0.06,0.07,0.15,0.1,0.19C2.71,0.76,2.81,0.82,2.97,0.9C3.03,0.94,3.1,0.96,3.15,0.99
	C3.16,0.9,3.17,0.83,3.2,0.78c0.09-0.19,0.57-0.73,0.85-0.77c0.31-0.05,0.46,0.27,0.6,0.59C4.67,0.65,4.7,0.7,4.72,0.76
	C4.73,0.77,4.74,0.79,4.75,0.8c0.09,0,0.19-0.01,0.29-0.01c1.25-0.04,2.95-0.04,4.46-0.04c1.42,0,2.39-0.16,3.17-0.29
	c0.44-0.07,0.82-0.14,1.2-0.16c0.23-0.01,0.47-0.05,0.73-0.1c0.89-0.15,1.98-0.33,3.17,0.43c0.15-0.14,0.32-0.19,0.36-0.21
	c0.21-0.06,0.36,0.01,0.44,0.07c0.15,0.11,0.23,0.3,0.25,0.56c0.01,0.19-0.07,0.38-0.12,0.49c0.01,0.01,0.01,0.02,0.02,0.03
	c0.03,0.05,0.09,0.1,0.17,0.16c0.1,0.08,0.22,0.18,0.33,0.32c0.23,0.28,0.29,0.68,0.2,0.87c0,0.01-0.01,0.02-0.01,0.03
	c0,0.05-0.01,0.1-0.01,0.14c0.03,0,0.07-0.01,0.1-0.02l0.08-0.02c0.08-0.02,0.16,0,0.21,0.05c0.06,0,0.12,0.03,0.16,0.07
	c0.07,0.07,0.08,0.17,0.05,0.26C20,3.5,20,3.56,19.98,3.62l-0.03,0.07c-0.05,0.11-0.21,0.3-0.73,0.34
	c-0.06,0.43-0.21,0.85-0.42,1.22c-0.14,0.24-0.31,0.47-0.51,0.68c-0.02,0.1-0.04,0.27,0.01,0.39c0.03,0.06,0.05,0.11,0.08,0.15
	c0.12,0.19,0.15,0.34,0.02,0.64c-0.01,0.01-0.06,0.14-0.06,0.61c0,0.18,0,0.34,0.01,0.45c0.01,0.21,0.02,0.33,0.03,0.35
	c0,0.01,0.02,0.04,0.04,0.06c0.06,0.11,0.19,0.33,0.04,0.58c0,0.02,0.01,0.04,0.01,0.06c0.01,0.06,0,0.14-0.03,0.2
	c-0.2,0.3-0.61,0.36-0.91,0.36c-0.08,0-0.14,0-0.15-0.01l-0.04,0c-0.07-0.01-0.13-0.04-0.17-0.09c-0.04-0.05-0.06-0.12-0.04-0.19
	l0.07-0.36c-0.01-0.03-0.01-0.05-0.01-0.08c0-0.05,0.01-0.1,0.02-0.14c0.01-0.07,0.02-0.11,0-0.19c-0.05-0.14-0.05-0.32-0.06-0.5
	c0-0.13-0.01-0.27-0.03-0.38c-0.02-0.11-0.08-0.18-0.2-0.3c-0.08,0.32-0.14,0.66-0.14,0.72c0,0.01,0.01,0.03,0.02,0.06
	c0.03,0.09,0.08,0.25,0,0.41c0,0.02,0,0.05,0,0.07c0.01,0.06-0.01,0.14-0.05,0.19c-0.23,0.28-0.64,0.31-0.94,0.28
	c-0.08-0.01-0.14-0.02-0.15-0.02l-0.04-0.01c-0.07-0.01-0.12-0.05-0.16-0.11c-0.04-0.06-0.05-0.13-0.03-0.19l0.11-0.41
	c0-0.03,0-0.06,0.01-0.08c0.01-0.04,0.03-0.08,0.05-0.13c0.02-0.06,0.04-0.09,0.03-0.16c-0.01-0.14,0.02-0.3,0.05-0.46
	c0.02-0.12,0.05-0.24,0.06-0.34c0.01-0.1-0.03-0.17-0.12-0.31c-0.05-0.08-0.1-0.18-0.15-0.3c-0.05-0.13-0.07-0.28-0.09-0.45
	c0-0.02,0-0.04-0.01-0.06c-0.03,0-0.05,0.01-0.08,0.01c-0.06,0.01-0.1,0.02-0.15,0.03l-0.13,0.02c-0.14,0.03-0.28,0.06-0.42,0.09
	l-0.19,0.04L14.3,6.23l0.05,0.23c-0.23,0.05-0.46,0.11-0.69,0.17l-0.04,0.01c-0.02,0.01-0.04,0.01-0.06,0.01
	c0,0-0.03,0.01-0.05,0.01c-0.04,0.01-0.07,0.02-0.1,0.02c-0.01,0-0.01,0-0.02,0l-0.06,0.01c-0.01,0-0.02,0-0.02,0.01
	c-0.02,0-0.04,0.01-0.06,0.01c-0.02,0-0.05,0.01-0.09,0.02l-0.05,0.01c0,0-0.01,0-0.01,0c-0.04,0.01-0.07,0.01-0.09,0.01
	c0,0-0.01,0-0.03,0.01c-0.02,0-0.04,0.01-0.07,0.01c-0.03,0-0.05,0.01-0.08,0.01c-0.01,0-0.02,0-0.03,0c0,0-0.03,0-0.05,0.01
	c-0.02,0-0.04,0.01-0.07,0.01c-0.03,0-0.06,0.01-0.09,0.01c0,0-0.01,0-0.01,0c-0.01,0-0.03,0-0.05,0.01l-0.16,0.01
	c0,0-0.03,0-0.03,0c-0.1,0.01-0.18,0.01-0.27,0.02l-0.16,0.01c-0.05,0-0.1,0-0.15,0.01l0,0c-0.01,0-0.02,0-0.03,0
	c-0.1,0-0.2,0.01-0.3,0.01l-0.48,0c0,0-0.02,0-0.02,0l-0.06,0c-0.05,0-0.09,0-0.14,0c-0.04,0-0.08,0-0.12,0
	c-0.05,0-0.11,0-0.17-0.01l-0.03,0c-0.05,0-0.1,0-0.15-0.01c-0.06,0-0.13-0.01-0.2-0.01c-0.07,0-0.14-0.01-0.2-0.01l-0.7-0.06
	C9.12,6.78,9.04,6.77,8.96,6.76L8.31,6.69c-0.02,0-0.04,0-0.06-0.01c0,0.07,0,0.13-0.02,0.19L8.22,6.9C8.04,7.37,8.04,7.49,8.04,7.5
	C8.1,7.75,7.93,8.32,7.86,8.49c0,0.01-0.01,0.02-0.02,0.03L7.84,8.53c0,0.02,0,0.05,0.01,0.07c0.01,0.06,0,0.14-0.04,0.19
	C7.6,9.07,7.23,9.09,7.03,9.08c-0.06,0-0.11-0.01-0.12-0.01l-0.02,0C6.86,9.05,6.83,9.04,6.8,9.02C6.79,9.04,6.79,9.06,6.78,9.07
	C6.77,9.09,6.76,9.11,6.75,9.13C6.72,9.18,6.7,9.22,6.66,9.26C6.65,9.28,6.63,9.3,6.62,9.31c0,0.01,0,0.03,0.01,0.04
	c0.01,0.06,0,0.14-0.04,0.2C6.39,9.84,6.01,9.9,5.71,9.9z M5.83,9.16c0.01,0.03,0,0.06,0,0.09L5.8,9.42
	c0.15-0.01,0.27-0.04,0.34-0.08C6.13,9.26,6.13,9.18,6.16,9.11C6.18,9.05,6.22,9,6.28,8.97C6.29,8.96,6.3,8.96,6.3,8.96
	c0.01-0.01,0.03-0.04,0.04-0.07c0,0,0,0,0,0c0,0,0-0.01,0-0.01c0.06-0.12,0.09-0.3,0.1-0.51c0-0.1,0.06-0.22,0.17-0.4
	c0.11-0.18,0.25-0.36,0.3-0.43c0.06-0.08,0.17-0.12,0.27-0.08c0.1,0.03,0.16,0.12,0.16,0.23c0,0.41-0.03,0.68-0.09,0.82
	c0,0,0,0.01,0,0.01c0,0,0,0,0,0L7.23,8.6c0.05-0.01,0.1-0.02,0.13-0.03c0-0.06,0-0.12,0.02-0.18l0.01-0.02
	C7.4,8.34,7.41,8.32,7.42,8.3C7.5,8.1,7.59,7.69,7.58,7.6c-0.03-0.11-0.02-0.29,0.2-0.87l0-0.01c0-0.03-0.01-0.1-0.01-0.15
	C7.76,6.52,7.75,6.47,7.75,6.43C7.74,6.36,7.77,6.28,7.82,6.23c0.05-0.05,0.12-0.07,0.2-0.06l0.2,0.03c0.05,0.01,0.1,0.01,0.14,0.02
	l0.65,0.07C9.09,6.29,9.16,6.3,9.24,6.31l0.67,0.06c0.08,0.01,0.15,0.01,0.22,0.01c0.07,0,0.13,0.01,0.2,0.01
	c0.05,0,0.1,0,0.14,0.01l0.04,0c0.06,0,0.11,0,0.16,0.01l0.12,0c0.05,0,0.09,0,0.13,0l0.06,0c0,0,0.03,0,0.03,0l0.46,0
	c0.1,0,0.19,0,0.29-0.01l0,0c0.01,0,0.01,0,0.02,0c0.06,0,0.1,0,0.15-0.01l0.15-0.01c0.08,0,0.16-0.01,0.25-0.02
	c0.02,0,0.03,0,0.05,0l0.16-0.02c0.02,0,0.02,0,0.04,0c0.02,0,0.05-0.01,0.08-0.01l0.06-0.01c0.03,0,0.04,0,0.05-0.01
	c0,0,0.03,0,0.03,0c0.02,0,0.04-0.01,0.06-0.01c0.04,0,0.05-0.01,0.07-0.01l0.03,0c0.04-0.01,0.07-0.01,0.09-0.01c0,0,0.01,0,0.01,0
	l0.05-0.01c0.03-0.01,0.06-0.01,0.08-0.02c0.02,0,0.03-0.01,0.04-0.01c0.01,0,0.02,0,0.02,0l0.06-0.01c0.01,0,0.01,0,0.02,0
	l0.09-0.02c0.03-0.01,0.04-0.01,0.06-0.01l0.03-0.01c0,0,0.02-0.01,0.02-0.01l0.02-0.01c0.23-0.06,0.47-0.12,0.7-0.18
	c0,0,0.02-0.01,0.02-0.01l0.07-0.02c0,0,0.02,0,0.03-0.01l0.09-0.02c0.14-0.03,0.29-0.06,0.44-0.09l0.13-0.02
	c0.04-0.01,0.09-0.02,0.13-0.02c0.01,0,0.02,0,0.02,0c0.04-0.01,0.08-0.01,0.11-0.02c0.06-0.01,0.13-0.02,0.2-0.03
	c0.13-0.02,0.25,0.06,0.28,0.19c0.02,0.11,0.03,0.22,0.05,0.32c0.01,0.12,0.03,0.26,0.06,0.32c0.04,0.09,0.09,0.17,0.13,0.25
	c0.1,0.17,0.2,0.34,0.18,0.59c-0.01,0.14-0.04,0.27-0.06,0.4c-0.03,0.13-0.05,0.26-0.05,0.34c0.01,0.19-0.04,0.31-0.07,0.38
	c0,0.01,0,0.01-0.01,0.02c0,0.02,0,0.05-0.01,0.07l-0.05,0.19c0.16,0,0.27-0.02,0.35-0.06c0-0.04,0-0.09,0.01-0.13
	c0.01-0.03,0.02-0.07,0.04-0.09c0-0.02-0.01-0.05-0.02-0.07c-0.02-0.06-0.04-0.13-0.04-0.21c0-0.14,0.14-0.89,0.3-1.29
	c0.03-0.08,0.11-0.14,0.2-0.15c0.09-0.01,0.18,0.04,0.22,0.12c0.01,0.01,0.01,0.02,0.02,0.03c0.06,0.09,0.13,0.16,0.2,0.23
	c0.15,0.15,0.3,0.31,0.34,0.57c0.02,0.15,0.03,0.3,0.03,0.44c0,0.15,0.01,0.29,0.04,0.37c0.06,0.19,0.04,0.33,0.02,0.42
	c0,0.01,0,0.01,0,0.02c0.02,0.04,0.02,0.08,0.01,0.13l-0.03,0.16c0.15-0.01,0.27-0.04,0.34-0.09c-0.01-0.06-0.01-0.13,0.01-0.2
	c0.01-0.04,0.03-0.08,0.06-0.11c-0.01-0.02-0.03-0.05-0.04-0.08c-0.03-0.06-0.07-0.13-0.09-0.21c-0.02-0.08-0.03-0.27-0.04-0.43
	c-0.01-0.12-0.01-0.29-0.01-0.48c0.01-0.59,0.08-0.75,0.11-0.81c0.04-0.09,0.04-0.12,0.04-0.12c0-0.01-0.03-0.05-0.03-0.06
	C17.94,6.67,17.9,6.6,17.86,6.5c-0.13-0.33-0.03-0.69-0.01-0.77c0.01-0.04,0.03-0.07,0.06-0.1c0.19-0.19,0.35-0.4,0.48-0.63
	c0.21-0.37,0.35-0.81,0.38-1.25c0.01-0.07,0.04-0.14,0.1-0.18c0.06-0.04,0.13-0.05,0.2-0.03c0.02,0.01,0.04,0.01,0.06,0.01
	c0,0,0,0,0,0c-0.08-0.02-0.15-0.07-0.2-0.15c-0.08-0.13-0.05-0.25-0.04-0.33c0.02-0.08,0.03-0.16-0.03-0.3
	c-0.02-0.06-0.04-0.11-0.07-0.16c-0.04-0.09-0.02-0.18,0.04-0.25c0,0,0,0,0,0c-0.08-0.1-0.17-0.18-0.26-0.25
	c-0.1-0.08-0.19-0.15-0.26-0.26c-0.03-0.05-0.07-0.11-0.11-0.17c-0.03-0.05-0.04-0.1-0.03-0.16c-0.05-0.03-0.09-0.07-0.11-0.12
	C18.03,1.32,18,1.22,17.99,1.12c-0.03,0.03-0.07,0.06-0.11,0.07c-0.07,0.02-0.15,0.01-0.21-0.03c-0.05-0.04-0.1-0.07-0.15-0.11
	c-1.04-0.67-1.96-0.52-2.85-0.37c-0.28,0.05-0.54,0.09-0.79,0.1c-0.35,0.02-0.72,0.08-1.15,0.15c-0.8,0.13-1.78,0.3-3.24,0.3
	c-1.5,0-3.2,0-4.44,0.04c-0.15,0-0.29,0.01-0.42,0.01c-0.08,0-0.16-0.04-0.21-0.1C4.38,1.13,4.34,1.06,4.29,0.97
	C4.27,0.91,4.24,0.85,4.21,0.79C4.17,0.7,4.12,0.59,4.08,0.51c-0.14,0.11-0.4,0.37-0.44,0.47c0,0-0.02,0.04-0.02,0.19
	c0,0.1-0.07,0.2-0.17,0.23C3.37,1.42,3.3,1.44,3.25,1.47c-0.06,0.03-0.13,0.03-0.19,0C3.02,1.45,2.89,1.4,2.76,1.33
	C2.71,1.31,2.67,1.29,2.63,1.27C2.72,1.39,2.78,1.5,2.81,1.54c0.01,0.01,0.01,0.02,0.02,0.03c0.03,0.06,0.04,0.13,0.01,0.2
	c0,0.01-0.01,0.02-0.01,0.03C2.76,2.04,2.6,2.22,2.49,2.35C2.47,2.38,2.45,2.41,2.43,2.43C2.29,2.61,1.74,3,1.43,3.06
	C1.38,3.06,1.34,3.08,1.28,3.1C1.25,3.12,1.23,3.13,1.2,3.14C1.1,3.19,0.99,3.25,0.82,3.27c-0.08,0.01-0.16,0.01-0.22,0
	c0.02,0.1,0.03,0.2,0.04,0.29c0.01,0.05,0.01,0.1,0.02,0.14c0.01,0.01,0.04,0.02,0.08,0.04c0.1,0.04,0.16,0.15,0.14,0.26
	C0.87,4.03,0.86,4.06,0.84,4.09c0.24,0.14,0.85,0.4,1,0.41c0,0,0,0,0,0c0.07,0,0.16,0.02,0.26,0.05c0.11,0.03,0.22,0.08,0.33,0.12
	c0.08,0.03,0.15,0.06,0.21,0.08c0.05,0.02,0.11,0.03,0.16,0.04C3,4.82,3.21,4.87,3.35,5.01c0.01,0,0.08,0.03,0.3,0.06l0.13,0.02
	c0.28,0.04,0.46,0.06,0.58,0.13c0.09,0.05,0.16,0.11,0.23,0.17c0.12,0.1,0.23,0.19,0.44,0.26c0.06,0.02,0.33,0.09,0.8,0.18
	l0.06,0.01C5.97,5.84,6.04,5.9,6.07,5.97c0.03,0.09,0.2,0.56,0.21,1.07c0.01,0.28,0,0.43-0.01,0.52c0,0.06,0,0.08,0,0.09
	C6.32,7.84,6.02,8.83,5.83,9.16z M6.61,9.24C6.61,9.24,6.61,9.24,6.61,9.24C6.61,9.24,6.61,9.24,6.61,9.24z M15.99,8.58
	C15.99,8.58,15.99,8.58,15.99,8.58C15.99,8.58,15.99,8.58,15.99,8.58z M7.83,8.55L7.83,8.55C7.83,8.55,7.83,8.55,7.83,8.55z
	 M0.74,4.01L0.74,4.01L0.74,4.01z M4.14,0.47L4.14,0.47L4.14,0.47z"/>
</svg>
